<svg xmlns="http://www.w3.org/2000/svg" width="45" height="17" viewBox="0 0 45 17">
  <defs>
    <style>
      .cls-1 {
        fill: #fff;
        fill-rule: evenodd;
      }
    </style>
  </defs>
  <path id="Rounded_Rectangle_1_copy_2" data-name="Rounded Rectangle 1 copy 2" class="cls-1" d="M1.62,0H43.38A1.564,1.564,0,0,1,45,1.5,1.564,1.564,0,0,1,43.38,3H1.62A1.564,1.564,0,0,1,0,1.5,1.564,1.564,0,0,1,1.62,0Zm10,7H43.38A1.564,1.564,0,0,1,45,8.5,1.564,1.564,0,0,1,43.38,10H11.62A1.564,1.564,0,0,1,10,8.5,1.564,1.564,0,0,1,11.62,7Zm10,7H43.38a1.5,1.5,0,1,1,0,3H21.62A1.5,1.5,0,1,1,21.62,14Z"/>
</svg>
